<svg xmlns="http://www.w3.org/2000/svg" version="1.1" xmlns:xlink="http://www.w3.org/1999/xlink" xmlns:svgjs="http://svgjs.dev/svgjs" width="2000" height="1500" viewBox="0 0 2000 1500"><rect width="2000" height="1500" fill="#ffffff"></rect><g transform="matrix(0.75,0,0,0.75,249.090909090909,282.7536437246963)"><svg viewBox="0 0 396 247" data-background-color="#ffffff" preserveAspectRatio="xMidYMid meet" height="1247" width="2000" xmlns="http://www.w3.org/2000/svg" xmlns:xlink="http://www.w3.org/1999/xlink"><g id="tight-bounds" transform="matrix(1,0,0,1,0.2400000000000091,-0.09999999999999432)"><svg viewBox="0 0 395.52 247.2" height="247.2" width="395.52"><g><svg></svg></g><g><svg viewBox="0 0 395.52 247.2" height="247.2" width="395.52"><g mask="url(&quot;#f5342575-51b4-4663-92b5-64d22f1ef301&quot;)"><g><path xmlns="http://www.w3.org/2000/svg" d="M287.804 20.73c0 5.182-1.071 9.069-3.213 11.66-2.177 2.591-5.683 3.887-10.52 3.887v0c-0.345 3.628-1.123 9.933-2.332 18.915v0c-1.727 12.092-2.678 18.829-2.851 20.212v0c-15.374 114.531-47.419 171.796-96.133 171.796v0c-14.338 0-25.515-4.06-33.53-12.179-8.05-8.119-12.075-18.311-12.075-30.576v0c0-21.939 9.328-41.338 27.985-58.198 18.657-16.825 43.187-30.766 73.59-41.822v0c1.9-12.265 3.369-23.234 4.405-32.908v0l4.664-39.127c-10.365-1.036-20.039-1.555-29.021-1.555v0c-24.012 0-41.718 2.332-53.12 6.996-11.401 4.664-17.102 12.265-17.102 22.803v0c0 5.182 1.727 10.797 5.183 16.843v0c1.036 1.727 1.555 3.541 1.554 5.441v0c0 3.628-1.848 6.858-5.545 9.691-3.731 2.868-7.756 4.301-12.075 4.302v0c-5.528 0-9.76-2.332-12.697-6.997v0c-4.837-7.946-7.255-17.188-7.255-27.725v0c0-41.459 36.277-62.189 108.83-62.189v0c21.075 0 39.904 2.073 56.488 6.219v0c9.847 2.418 14.77 7.255 14.77 14.511zM176.124 219.474c8.465 0 16.929-6.392 25.393-19.175 8.465-12.783 15.893-35.154 22.285-67.112v0c-42.15 18.484-63.225 41.114-63.226 67.89v0c0 5.873 1.382 10.399 4.146 13.578 2.764 3.213 6.564 4.82 11.402 4.819z" fill="#35185a" fill-rule="nonzero" stroke="none" stroke-width="1" stroke-linecap="butt" stroke-linejoin="miter" stroke-miterlimit="10" stroke-dasharray="" stroke-dashoffset="0" font-family="none" font-weight="none" font-size="none" text-anchor="none" style="mix-blend-mode: normal" data-fill-palette-color="tertiary"></path></g></g><g transform="matrix(1,0,0,1,58.29370018975331,37.08)"><svg viewBox="0 0 278.93259962049336 173.04" height="173.04" width="278.93259962049336"><g><svg viewBox="0 0 278.93259962049336 173.04" height="173.04" width="278.93259962049336"><g><svg viewBox="0 0 278.93259962049336 173.04" height="173.04" width="278.93259962049336"><g><svg viewBox="0 0 278.93259962049336 173.04" height="173.04" width="278.93259962049336"><g id="textblocktransform"><svg viewBox="0 0 278.93259962049336 173.04" height="173.04" width="278.93259962049336" id="textblock"><g><svg viewBox="0 0 278.93259962049336 173.04" height="173.04" width="278.93259962049336"><g transform="matrix(1,0,0,1,0,0)"><svg width="278.93259962049336" viewBox="0.5499999523162842 -45.349998474121094 85.94999694824219 53.69999694824219" height="173.04" data-palette-color="#35185a"><path d="M38.3-38.35Q38.3-36.85 37.68-36.1 37.05-35.35 35.65-35.35L35.65-35.35Q35.55-34.3 35.2-31.7L35.2-31.7Q34.7-28.2 34.65-27.8L34.65-27.8Q30.2 5.35 16.1 5.35L16.1 5.35Q11.95 5.35 9.63 3 7.3 0.65 7.3-2.9L7.3-2.9Q7.3-9.25 12.7-14.13 18.1-19 26.9-22.2L26.9-22.2Q27.45-25.75 27.75-28.55L27.75-28.55 28.65-36.1Q25.65-36.4 23.05-36.4L23.05-36.4Q16.1-36.4 12.8-35.05 9.5-33.7 9.5-30.65L9.5-30.65Q9.5-29.15 10.5-27.4L10.5-27.4Q10.8-26.9 10.8-26.35L10.8-26.35Q10.8-25.3 9.73-24.48 8.65-23.65 7.4-23.65L7.4-23.65Q5.8-23.65 4.95-25L4.95-25Q3.55-27.3 3.55-30.35L3.55-30.35Q3.55-42.35 24.55-42.35L24.55-42.35Q30.65-42.35 35.45-41.15L35.45-41.15Q38.3-40.45 38.3-38.35L38.3-38.35ZM16.75 0Q19.2 0 21.65-3.7 24.1-7.4 25.95-16.65L25.95-16.65Q13.75-11.3 13.75-3.55L13.75-3.55Q13.75-1.85 14.55-0.93 15.35 0 16.75 0L16.75 0ZM42.45 0.25Q39.35 0.25 37.5-2 35.65-4.25 35.65-7.9L35.65-7.9Q35.65-11.9 37.5-15.48 39.35-19.05 42.42-21.23 45.5-23.4 48.95-23.4L48.95-23.4Q50.05-23.4 50.42-22.98 50.8-22.55 51.05-21.45L51.05-21.45Q52.1-21.65 53.25-21.65L53.25-21.65Q55.7-21.65 55.7-19.9L55.7-19.9Q55.7-18.85 54.95-14.9L54.95-14.9Q53.8-9.15 53.8-6.9L53.8-6.9Q53.8-6.15 54.17-5.7 54.55-5.25 55.15-5.25L55.15-5.25Q56.1-5.25 57.45-6.48 58.8-7.7 61.1-10.45L61.1-10.45Q61.7-11.15 62.45-11.15L62.45-11.15Q63.1-11.15 63.47-10.55 63.85-9.95 63.85-8.9L63.85-8.9Q63.85-6.9 62.9-5.8L62.9-5.8Q60.85-3.25 58.55-1.5 56.25 0.25 54.1 0.25L54.1 0.25Q52.45 0.25 51.07-0.88 49.7-2 49-3.95L49-3.95Q46.4 0.25 42.45 0.25L42.45 0.25ZM44.25-4.8Q45.35-4.8 46.35-6.1 47.35-7.4 47.8-9.55L47.8-9.55 49.65-18.75Q47.55-18.7 45.77-17.18 44-15.65 42.95-13.15 41.9-10.65 41.9-7.85L41.9-7.85Q41.9-6.3 42.52-5.55 43.15-4.8 44.25-4.8L44.25-4.8ZM82.09-11.15Q82.75-11.15 83.12-10.55 83.5-9.95 83.5-8.9L83.5-8.9Q83.5-6.9 82.55-5.8L82.55-5.8Q80.7-3.55 77.32-1.65 73.95 0.25 70.09 0.25L70.09 0.25Q64.84 0.25 61.95-2.6 59.05-5.45 59.05-10.4L59.05-10.4Q59.05-13.85 60.5-16.82 61.95-19.8 64.52-21.55 67.09-23.3 70.34-23.3L70.34-23.3Q73.25-23.3 75-21.58 76.75-19.85 76.75-16.9L76.75-16.9Q76.75-13.45 74.27-10.98 71.8-8.5 65.9-7.05L65.9-7.05Q67.15-4.75 70.65-4.75L70.65-4.75Q72.9-4.75 75.77-6.33 78.65-7.9 80.75-10.45L80.75-10.45Q81.34-11.15 82.09-11.15L82.09-11.15ZM69.5-18.4Q67.65-18.4 66.37-16.25 65.09-14.1 65.09-11.05L65.09-11.05 65.09-10.95Q68.05-11.65 69.75-13.05 71.45-14.45 71.45-16.3L71.45-16.3Q71.45-17.25 70.92-17.82 70.4-18.4 69.5-18.4L69.5-18.4Z" opacity="1" transform="matrix(1,0,0,1,0,0)" fill="#35185a" class="undefined-text-0" data-fill-palette-color="primary" id="text-0"></path></svg></g></svg></g></svg></g></svg></g><g></g></svg></g></svg></g></svg></g></svg></g><defs><mask id="f5342575-51b4-4663-92b5-64d22f1ef301"><rect width="395.52" height="247.2" fill="white"></rect><g transform="matrix(1,0,0,1,58.29370018975331,37.08)" id="clone"><svg viewBox="0 0 278.93259962049336 173.04" height="173.04" width="278.93259962049336"><g><svg viewBox="0 0 278.93259962049336 173.04" height="173.04" width="278.93259962049336"><g><svg viewBox="0 0 278.93259962049336 173.04" height="173.04" width="278.93259962049336"><g><svg viewBox="0 0 278.93259962049336 173.04" height="173.04" width="278.93259962049336"><g id="SvgjsG1044"><svg viewBox="0 0 278.93259962049336 173.04" height="173.04" width="278.93259962049336" id="SvgjsSvg1043"><g><svg viewBox="0 0 278.93259962049336 173.04" height="173.04" width="278.93259962049336"><g transform="matrix(1,0,0,1,0,0)"><svg width="278.93259962049336" viewBox="0.5499999523162842 -45.349998474121094 85.94999694824219 53.69999694824219" height="173.04" data-palette-color="#35185a"><path d="M38.3-38.35Q38.3-36.85 37.68-36.1 37.05-35.35 35.65-35.35L35.65-35.35Q35.55-34.3 35.2-31.7L35.2-31.7Q34.7-28.2 34.65-27.8L34.65-27.8Q30.2 5.35 16.1 5.35L16.1 5.35Q11.95 5.35 9.63 3 7.3 0.65 7.3-2.9L7.3-2.9Q7.3-9.25 12.7-14.13 18.1-19 26.9-22.2L26.9-22.2Q27.45-25.75 27.75-28.55L27.75-28.55 28.65-36.1Q25.65-36.4 23.05-36.4L23.05-36.4Q16.1-36.4 12.8-35.05 9.5-33.7 9.5-30.65L9.5-30.65Q9.5-29.15 10.5-27.4L10.5-27.4Q10.8-26.9 10.8-26.35L10.8-26.35Q10.8-25.3 9.73-24.48 8.65-23.65 7.4-23.65L7.4-23.65Q5.8-23.65 4.95-25L4.95-25Q3.55-27.3 3.55-30.35L3.55-30.35Q3.55-42.35 24.55-42.35L24.55-42.35Q30.65-42.35 35.45-41.15L35.45-41.15Q38.3-40.45 38.3-38.35L38.3-38.35ZM16.75 0Q19.2 0 21.65-3.7 24.1-7.4 25.95-16.65L25.95-16.65Q13.75-11.3 13.75-3.55L13.75-3.55Q13.75-1.85 14.55-0.93 15.35 0 16.75 0L16.75 0ZM42.45 0.25Q39.35 0.25 37.5-2 35.65-4.25 35.65-7.9L35.65-7.9Q35.65-11.9 37.5-15.48 39.35-19.05 42.42-21.23 45.5-23.4 48.95-23.4L48.95-23.4Q50.05-23.4 50.42-22.98 50.8-22.55 51.05-21.45L51.05-21.45Q52.1-21.65 53.25-21.65L53.25-21.65Q55.7-21.65 55.7-19.9L55.7-19.9Q55.7-18.85 54.95-14.9L54.95-14.9Q53.8-9.15 53.8-6.9L53.8-6.9Q53.8-6.15 54.17-5.7 54.55-5.25 55.15-5.25L55.15-5.25Q56.1-5.25 57.45-6.48 58.8-7.7 61.1-10.45L61.1-10.45Q61.7-11.15 62.45-11.15L62.45-11.15Q63.1-11.15 63.47-10.55 63.85-9.95 63.85-8.9L63.85-8.9Q63.85-6.9 62.9-5.8L62.9-5.8Q60.85-3.25 58.55-1.5 56.25 0.25 54.1 0.25L54.1 0.25Q52.45 0.25 51.07-0.88 49.7-2 49-3.95L49-3.95Q46.4 0.25 42.45 0.25L42.45 0.25ZM44.25-4.8Q45.35-4.8 46.35-6.1 47.35-7.4 47.8-9.55L47.8-9.55 49.65-18.75Q47.55-18.7 45.77-17.18 44-15.65 42.95-13.15 41.9-10.65 41.9-7.85L41.9-7.85Q41.9-6.3 42.52-5.55 43.15-4.8 44.25-4.8L44.25-4.8ZM82.09-11.15Q82.75-11.15 83.12-10.55 83.5-9.95 83.5-8.9L83.5-8.9Q83.5-6.9 82.55-5.8L82.55-5.8Q80.7-3.55 77.32-1.65 73.95 0.25 70.09 0.25L70.09 0.25Q64.84 0.25 61.95-2.6 59.05-5.45 59.05-10.4L59.05-10.4Q59.05-13.85 60.5-16.82 61.95-19.8 64.52-21.55 67.09-23.3 70.34-23.3L70.34-23.3Q73.25-23.3 75-21.58 76.75-19.85 76.75-16.9L76.75-16.9Q76.75-13.45 74.27-10.98 71.8-8.5 65.9-7.05L65.9-7.05Q67.15-4.75 70.65-4.75L70.65-4.75Q72.9-4.75 75.77-6.33 78.65-7.9 80.75-10.45L80.75-10.45Q81.34-11.15 82.09-11.15L82.09-11.15ZM69.5-18.4Q67.65-18.4 66.37-16.25 65.09-14.1 65.09-11.05L65.09-11.05 65.09-10.95Q68.05-11.65 69.75-13.05 71.45-14.45 71.45-16.3L71.45-16.3Q71.45-17.25 70.92-17.82 70.4-18.4 69.5-18.4L69.5-18.4Z" opacity="1" transform="matrix(1,0,0,1,0,0)" fill="#35185a" class="undefined-text-0" data-fill-palette-color="primary" id="SvgjsPath1042" stroke-width="5" stroke="black" stroke-linejoin="round"></path></svg></g></svg></g></svg></g></svg></g><g></g></svg></g></svg></g></svg></g></mask></defs></svg><rect width="395.52" height="247.2" fill="none" stroke="none" visibility="hidden"></rect></g></svg></g></svg>